<svg width="18" height="19" viewBox="0 0 18 19" fill="none" xmlns="http://www.w3.org/2000/svg">
<path id="Vector" d="M13.5002 1.7059C14.8576 2.48967 15.9868 3.61438 16.776 4.96867C17.5652 6.32297 17.987 7.8599 17.9997 9.42731C18.0124 10.9947 17.6154 12.5383 16.8482 13.9051C16.081 15.272 14.9701 16.4148 13.6255 17.2204C12.2809 18.026 10.7492 18.4664 9.182 18.4982C7.61484 18.5299 6.06657 18.1518 4.69046 17.4012C3.31434 16.6507 2.15811 15.5538 1.33622 14.2191C0.514322 12.8844 0.0552691 11.3581 0.00450016 9.7915L0 9.4999L0.00450016 9.2083C0.0549036 7.65399 0.507199 6.13927 1.31729 4.8118C2.12738 3.48432 3.26763 2.38941 4.62686 1.6338C5.98609 0.878185 7.51792 0.48766 9.07302 0.500297C10.6281 0.512934 12.1534 0.928301 13.5002 1.7059ZM12.3365 7.0636C12.1815 6.90864 11.9753 6.81556 11.7566 6.8018C11.5378 6.78805 11.3216 6.85458 11.1484 6.9889L11.0638 7.0636L8.1001 10.0264L6.93639 8.8636L6.85178 8.7889C6.67861 8.65467 6.46241 8.58822 6.24374 8.60202C6.02507 8.61582 5.81894 8.70891 5.66401 8.86384C5.50907 9.01877 5.41598 9.2249 5.40218 9.44357C5.38839 9.66224 5.45484 9.87843 5.58907 10.0516L5.66377 10.1362L7.46379 11.9362L7.54839 12.0109C7.70623 12.1334 7.90033 12.1998 8.1001 12.1998C8.29987 12.1998 8.49397 12.1334 8.65181 12.0109L8.73641 11.9362L12.3365 8.3362L12.4112 8.2516C12.5455 8.07844 12.612 7.86221 12.5983 7.64349C12.5845 7.42477 12.4914 7.21858 12.3365 7.0636Z" fill="#65DD2D"/>
</svg>
